<svg width="1167" height="498" viewBox="0 0 1167 498" fill="none" xmlns="http://www.w3.org/2000/svg">
<g clip-path="url(#clip0_209_21)">
<line x1="71.5186" y1="33.5364" x2="241.536" y2="309.481" stroke="#464646" stroke-width="40" stroke-linecap="round"/>
<line x1="233.696" y1="32.7378" x2="410.738" y2="302.304" stroke="#464646" stroke-width="40" stroke-linecap="round"/>
<line x1="403.68" y1="27.816" x2="584.816" y2="305.32" stroke="#464646" stroke-width="40" stroke-linecap="round"/>
<line x1="577.693" y1="28.7517" x2="761.752" y2="309.307" stroke="#464646" stroke-width="40" stroke-linecap="round"/>
<line x1="751.671" y1="28.8566" x2="932.857" y2="307.329" stroke="#464646" stroke-width="40" stroke-linecap="round"/>
<line x1="924.605" y1="29.1634" x2="1098.16" y2="302.504" stroke="#464646" stroke-width="40" stroke-linecap="round"/>
<line x1="67.6795" y1="309.779" x2="230.179" y2="28.3206" stroke="#FFD600" stroke-width="40" stroke-linecap="round"/>
<line x1="241.179" y1="309.779" x2="403.68" y2="28.3206" stroke="#FFD600" stroke-width="40" stroke-linecap="round"/>
<line x1="414.679" y1="309.779" x2="577.18" y2="28.3206" stroke="#FFD600" stroke-width="40" stroke-linecap="round"/>
<line x1="588.179" y1="309.779" x2="750.68" y2="28.3206" stroke="#FFD600" stroke-width="40" stroke-linecap="round"/>
<line x1="761.679" y1="309.779" x2="924.18" y2="28.3206" stroke="#FFD600" stroke-width="40" stroke-linecap="round"/>
<line x1="935.179" y1="309.779" x2="1097.68" y2="28.3206" stroke="#FFD600" stroke-width="40" stroke-linecap="round"/>
<line x1="1140.08" y1="469.569" x2="1051.56" y2="405.914" stroke="#FFD600" stroke-width="40" stroke-linecap="round"/>
<line x1="1104" y1="28" x2="1104" y2="423" stroke="#FFD600" stroke-width="40" stroke-linecap="round"/>
<line x1="117.434" y1="407.914" x2="28.9141" y2="471.569" stroke="#FFD600" stroke-width="40" stroke-linecap="round"/>
<line x1="66" y1="30" x2="66" y2="425" stroke="#FFD600" stroke-width="40" stroke-linecap="round"/>
</g>
<defs>
<clipPath id="clip0_209_21">
<rect width="1167" height="498" fill="white"/>
</clipPath>
</defs>
</svg>
