<svg xmlns="http://www.w3.org/2000/svg" width="1em" height="1em" fill="currentColor" viewBox="0 0 256 256"><path d="M 128 20 C 44.862 20 -7.1 110 34.469 182 C 76.038 254 179.962 254 221.531 182 C 231.01 165.582 236 146.958 236 128 C 235.934 68.381 187.619 20.066 128 20 Z M 194 179.94 C 186.222 170.047 176.308 162.041 165 156.52 C 193.127 128.037 179.873 79.788 141.143 69.671 C 102.413 59.553 67.254 95.157 77.857 133.756 C 80.217 142.345 84.742 150.183 91 156.52 C 79.692 162.041 69.778 170.047 62 179.94 C 21.951 129.172 51.879 54.087 115.87 44.788 C 179.861 35.489 229.922 98.949 205.98 159.017 C 202.983 166.537 198.914 173.584 193.9 179.94 L 194 179.94 Z"></path></svg>