<?xml version="1.0" encoding="utf-8"?>
<!-- Generator: Adobe Illustrator 26.5.0, SVG Export Plug-In . SVG Version: 6.00 Build 0)  -->
<svg version="1.1" xmlns="http://www.w3.org/2000/svg" xmlns:xlink="http://www.w3.org/1999/xlink" x="0px" y="0px" viewBox="0 0 434.7 382.8" style="enable-background:new 0 0 434.7 382.8;" fill="currentcolor" xml:space="preserve">
	<path d="M76.5,255.9c-9.9,0-18-8.1-18-18v-88.8c0-20.5,13.9-36.9,35.6-42.1l239.4-81.7c11.9-4.4,24.7-2.9,35.1,4.3
	c11.7,8.1,18.4,21.7,18.4,37.5v75.8c0,9.9-8.1,18-18,18s-18-8.1-18-18V67c0-4.3-1.5-6.9-2.8-7.8c-0.6-0.4-1.1-0.6-2.2-0.2
	c-0.2,0.1-0.4,0.1-0.6,0.2l-240.5,82.1c-0.6,0.2-1.3,0.4-1.9,0.5c-8.4,1.8-8.4,5.9-8.4,7.2v88.8C94.5,247.8,86.4,255.9,76.5,255.9z
	 M13.6,306.1l396.9-131.2c12.1-4,24.2,6.2,24.2,20.4v131.2c0,11.8-8.5,21.3-18.9,21.3H18.9C8.4,347.8,0,338.2,0,326.5l0,0
	C0,317,5.5,308.7,13.6,306.1z"/>
</svg>
