<?xml version="1.0" encoding="utf-8"?>
<!-- Generator: Adobe Illustrator 27.0.1, SVG Export Plug-In . SVG Version: 6.00 Build 0)  -->
<svg version="1.1"
	 id="Layer_1" xmlns:svg="http://www.w3.org/2000/svg" xmlns:inkscape="http://www.inkscape.org/namespaces/inkscape" xmlns:rdf="http://www.w3.org/1999/02/22-rdf-syntax-ns#" xmlns:dc="http://purl.org/dc/elements/1.1/" xmlns:cc="http://creativecommons.org/ns#" xmlns:sodipodi="http://sodipodi.sourceforge.net/DTD/sodipodi-0.dtd"
	 xmlns="http://www.w3.org/2000/svg" xmlns:xlink="http://www.w3.org/1999/xlink" x="0px" y="0px" viewBox="0 0 20 20"
	 style="enable-background:new 0 0 20 20;" xml:space="preserve">
<style type="text/css">
	.st0{fill:#161616;}
	.st1{fill:#F2F2F2;}
</style>
<path class="st0" d="M13.8,18H6.2C3.9,18,2,16.1,2,13.8V6.2C2,3.9,3.9,2,6.2,2h7.5C16.1,2,18,3.9,18,6.2v7.5
	C18,16.1,16.1,18,13.8,18z"/>
<path class="st1" d="M8.7,6.6C8.3,6.6,8,6.9,8,7.3C8,7.7,7.7,8,7.3,8C6.9,8,6.6,7.7,6.6,7.3c0-1.2,0.9-2.1,2.1-2.1h2.1
	c1.5,0,2.8,1.3,2.8,2.8c0,1.2-0.7,2.2-1.8,2.6l-1.4,0.5v0.4c0,0.4-0.3,0.7-0.7,0.7S9,11.9,9,11.5v-0.4c0-0.6,0.4-1.1,0.9-1.3
	l1.4-0.5c0.5-0.2,0.9-0.7,0.9-1.3c0-0.8-0.6-1.4-1.4-1.4H8.7z M9.7,15c-0.5,0-0.9-0.4-0.9-0.9s0.4-0.9,0.9-0.9s0.9,0.4,0.9,0.9
	S10.2,15,9.7,15z"/>
</svg>
