<?xml version="1.0" encoding="utf-8"?>
<!-- Generator: Adobe Illustrator 26.3.1, SVG Export Plug-In . SVG Version: 6.00 Build 0)  -->
<svg version="1.1"
	 xmlns:sodipodi="http://sodipodi.sourceforge.net/DTD/sodipodi-0.dtd" xmlns:cc="http://creativecommons.org/ns#" xmlns:dc="http://purl.org/dc/elements/1.1/" xmlns:rdf="http://www.w3.org/1999/02/22-rdf-syntax-ns#" xmlns:inkscape="http://www.inkscape.org/namespaces/inkscape" xmlns:svg="http://www.w3.org/2000/svg"
	 xmlns="http://www.w3.org/2000/svg" xmlns:xlink="http://www.w3.org/1999/xlink" x="0px" y="0px" viewBox="0 0 20 20"
	 style="enable-background:new 0 0 20 20;" xml:space="preserve">
<style type="text/css">
	.st0{fill:#EBEBEB;}
    .st1{fill:#161616;}
</style>
<path class="st0" d="M13.8,18H6.2C3.9,18,2,16.1,2,13.8V6.2C2,3.9,3.9,2,6.2,2h7.5C16.1,2,18,3.9,18,6.2v7.5
	C18,16.1,16.1,18,13.8,18z"/>
<path class="st1" d="M10,12.3c0.4,0,0.7-0.4,0.7-0.7V5.4c0-0.4-0.4-0.7-0.7-0.7S9.3,5,9.3,5.4v6.1C9.3,12,9.6,12.3,10,12.3z
	 M10,13.4c-0.5,0-1,0.4-1,1c0,0.5,0.4,0.9,1,0.9s1-0.4,1-0.9S10.5,13.4,10,13.4z"/>
</svg>
