<?xml version="1.0" encoding="utf-8"?>
<!-- Generator: Adobe Illustrator 26.3.1, SVG Export Plug-In . SVG Version: 6.00 Build 0)  -->
<svg version="1.1"
	 xmlns:sodipodi="http://sodipodi.sourceforge.net/DTD/sodipodi-0.dtd" xmlns:cc="http://creativecommons.org/ns#" xmlns:dc="http://purl.org/dc/elements/1.1/" xmlns:rdf="http://www.w3.org/1999/02/22-rdf-syntax-ns#" xmlns:inkscape="http://www.inkscape.org/namespaces/inkscape" xmlns:svg="http://www.w3.org/2000/svg"
	 xmlns="http://www.w3.org/2000/svg" xmlns:xlink="http://www.w3.org/1999/xlink" x="0px" y="0px" viewBox="0 0 20 20"
	 style="enable-background:new 0 0 20 20;" xml:space="preserve">
<style type="text/css">
	.st0{fill:#161616;}
	.st1{fill:#F2F2F2;}
</style>
<path class="st0" d="M13.7,18H6.3C3.9,18,2,16.1,2,13.7V6.3C2,3.9,3.9,2,6.3,2h7.5C16.1,2,18,3.9,18,6.3v7.5
	C18,16.1,16.1,18,13.7,18z"/>
<path class="st1" d="M13.4,6.2C13.4,6.7,13,7,12.5,7c-0.5,0-0.9-0.4-0.9-0.9s0.4-0.9,0.9-0.9C13,5.3,13.4,5.6,13.4,6.2z M8.9,6.2
	c0.2-0.1,0.3-0.1,0.6,0l2.2,1c0.5,0.3,0.7,1,0.3,1.4l-0.7,0.8h2.2c0.2,0,0.3,0.1,0.4,0.3c0.1,0.2,0.2,0.3,0.1,0.5l-0.6,3
	c-0.1,0.3-0.3,0.5-0.7,0.4c-0.3-0.1-0.5-0.3-0.4-0.7l0.4-2.2h-1.3c0.2,0.3,0.3,0.8,0.3,1.2c0,1.6-1.3,3-3,3c-1.6,0-3-1.3-3-3
	s1.3-3,3-3c0.2,0,0.4,0,0.6,0.1l1-1L9.3,7.4l-1,0.7C8.1,8.3,7.8,8.2,7.5,8C7.4,7.7,7.4,7.4,7.6,7.1L8.9,6.2z M8.7,13.6
	c1,0,1.8-0.8,1.8-1.8S9.7,10,8.7,10c-1,0-1.8,0.8-1.8,1.8C6.8,12.8,7.6,13.6,8.7,13.6z"/>
</svg>
