<?xml version="1.0" encoding="utf-8"?>
<!-- Generator: Adobe Illustrator 26.3.1, SVG Export Plug-In . SVG Version: 6.00 Build 0)  -->
<svg version="1.1"
	 xmlns:sodipodi="http://sodipodi.sourceforge.net/DTD/sodipodi-0.dtd" xmlns:cc="http://creativecommons.org/ns#" xmlns:dc="http://purl.org/dc/elements/1.1/" xmlns:rdf="http://www.w3.org/1999/02/22-rdf-syntax-ns#" xmlns:inkscape="http://www.inkscape.org/namespaces/inkscape" xmlns:svg="http://www.w3.org/2000/svg"
	 xmlns="http://www.w3.org/2000/svg" xmlns:xlink="http://www.w3.org/1999/xlink" x="0px" y="0px" viewBox="0 0 20 20"
	 style="enable-background:new 0 0 20 20;" xml:space="preserve">
<style type="text/css">
	.st0{fill:#EBEBEB;}
	.st1{fill:#161616;}
</style>
<path class="st0" d="M13.8,18H6.2C3.9,18,2,16.1,2,13.8V6.2C2,3.9,3.9,2,6.2,2h7.5C16.1,2,18,3.9,18,6.2v7.5
	C18,16.1,16.1,18,13.8,18z"/>
<path class="st1" d="M14.1,13c0.3,0.3,0.3,0.9,0,1.3c-0.2,0.2-0.4,0.3-0.6,0.3s-0.4-0.1-0.6-0.3L10,11.5l-2.8,2.8
	c-0.2,0.2-0.4,0.3-0.6,0.3c-0.3,0-0.4-0.1-0.6-0.3C5.6,14,5.6,13.4,6,13l2.8-2.8L5.9,7.4C5.6,7,5.6,6.4,5.9,6.1
	c0.3-0.3,0.9-0.3,1.3,0L10,8.9l2.8-2.8c0.3-0.3,0.9-0.3,1.3,0c0.3,0.3,0.3,0.9,0,1.3l-2.8,2.8L14.1,13z"/>
</svg>
